<?xml version="1.0" encoding="iso-8859-1"?>
<svg version="1.1" id="Capa_1" xmlns="http://www.w3.org/2000/svg" xmlns:xlink="http://www.w3.org/1999/xlink" x="0px" y="0px"
	 width="282.85px" height="282.85px" viewBox="0 0 282.85 282.85" style="enable-background:new 0 0 282.85 282.85;"
	 xml:space="preserve">
<g>
	<g>
		<path d="M271.567,282.85H11.283C5.062,282.85,0,277.794,0,271.566V63.026h282.85v208.54
			C282.85,277.788,277.793,282.85,271.567,282.85z" fill="#005082"/>
		<path d="M271.567,0H11.283C5.062,0,0,5.065,0,11.289v39.439h282.85V11.289C282.85,5.065,277.793,0,271.567,0z M26.712,31.771
			h-4.23c-3.401,0-6.149-2.75-6.149-6.149c0-3.396,2.748-6.149,6.149-6.149h4.23c3.398,0,6.149,2.753,6.149,6.149
			C32.861,29.016,30.111,31.771,26.712,31.771z M51.497,31.771h-4.23c-3.399,0-6.149-2.75-6.149-6.149
			c0-3.396,2.75-6.149,6.149-6.149h4.23c3.402,0,6.149,2.753,6.149,6.149C57.646,29.016,54.899,31.771,51.497,31.771z
			 M249.799,31.771H76.093c-3.399,0-6.149-2.75-6.149-6.149c0-3.396,2.75-6.149,6.149-6.149h173.707
			c3.398,0,6.149,2.753,6.149,6.149C255.949,29.016,253.198,31.771,249.799,31.771z" fill="#005082"/>
	</g>
</g>
<g>
</g>
<g>
</g>
<g>
</g>
<g>
</g>
<g>
</g>
<g>
</g>
<g>
</g>
<g>
</g>
<g>
</g>
<g>
</g>
<g>
</g>
<g>
</g>
<g>
</g>
<g>
</g>
<g>
</g>
</svg>
